<svg xmlns="http://www.w3.org/2000/svg" viewBox="0 0 512 512" role="img" aria-labelledby="title">
  <title id="title">Freedom Travel OS Orbit QR logo</title>
  <defs>
    <linearGradient id="orbit" x1="92" y1="410" x2="434" y2="248" gradientUnits="userSpaceOnUse">
      <stop offset="0" stop-color="#0B56E8"/>
      <stop offset=".52" stop-color="#147BFF"/>
      <stop offset="1" stop-color="#6AC7FF"/>
    </linearGradient>
  </defs>
  <path d="M72 303c7 87 82 142 190 142 119 0 207-63 225-154" fill="none" stroke="url(#orbit)" stroke-width="20" stroke-linecap="round"/>
  <g fill="none" stroke="#F8FBFF" stroke-width="34" stroke-linecap="round" stroke-linejoin="round">
    <path d="M250 116a144 144 0 1 0 0 280"/>
    <path d="M258 116v280"/>
    <path d="M258 119h55c69 0 112 34 112 88 0 51-42 83-105 83h-62"/>
    <path d="M319 290l116 121"/>
  </g>
  <g transform="translate(404 86) rotate(18)" fill="#F8FBFF">
    <path d="M4 39 51 25 69 3c3-4 9-4 12-1 2 2 2 5 1 8L72 31l27 17c5 3 6 9 2 13-2 2-5 3-8 2L63 53 47 79c-2 4-8 5-11 2-2-2-3-5-2-8l9-27-29 5c-5 1-10-3-10-8 0-2 0-3 0-4Z"/>
  </g>
</svg>